<?xml version="1.0" encoding="utf-8"?><!-- Uploaded to: SVG Repo, www.svgrepo.com, Generator: SVG Repo Mixer Tools -->
<svg fill="#000000" width="800px" height="800px" viewBox="0 0 24 24" id="dashboard-alt-2" data-name="Flat Color" xmlns="http://www.w3.org/2000/svg" class="icon flat-color"><path id="primary" d="M12,3A10,10,0,0,0,2,13a9.89,9.89,0,0,0,3.74,7.78,1,1,0,0,0,.62.22H17.64a1,1,0,0,0,.62-.22A9.89,9.89,0,0,0,22,13,10,10,0,0,0,12,3Z" style="fill: rgb(0, 0, 0);"></path><path id="secondary" d="M16.55,8.17a1,1,0,0,0-1.38.28l-3.39,5.07a1.51,1.51,0,1,0,1.67,1.11l3.38-5.08A1,1,0,0,0,16.55,8.17Z" style="fill: rgb(44, 169, 188);"></path></svg>